<svg xmlns="http://www.w3.org/2000/svg" width="64" height="6464" preserveAspectRatio="none">
<defs>
  <filter id="f1">
    <feGaussianBlur in="SourceGraphic" stdDeviation="0.8" />
  </filter>
  <radialGradient id="g1" cx="50%" cy="10%">
    <stop offset="0%" stop-color="#fff"/>
    <stop offset="100%" stop-color="#000"/>
  </radialGradient>
  <linearGradient id="g2" x1="0%" y1="0%" x2="0%" y2="100%">
    <stop offset="0%" stop-color="#000" stop-opacity="0"/>
    <stop offset="100%" stop-color="#000" stop-opacity="0.3"/>
  </linearGradient>
  <g id="B">
    <circle cx="32" cy="32" r="31" fill="#000"/>
    <circle cx="32" cy="32" r="29" fill="url(#g1)"/>
    <circle cx="32" cy="32" r="29" fill="url(#g2)"/>
    <circle cx="32" cy="32" r="25" fill="#000" filter="url(#f1)"/>
    <circle cx="32" cy="32" r="29" fill="url(#g2)"/>
  </g>
  <line id="K" x1="32" y1="25" x2="32" y2="11" stroke-linecap="round" stroke-width="6" stroke="#e00"/>
</defs><use href="#B" y="0"/><use href="#K" y="0" transform="rotate(-135.00,32,32)"/><use href="#B" y="64"/><use href="#K" y="64" transform="rotate(-132.33,32,96)"/><use href="#B" y="128"/><use href="#K" y="128" transform="rotate(-129.65,32,160)"/><use href="#B" y="192"/><use href="#K" y="192" transform="rotate(-126.98,32,224)"/><use href="#B" y="256"/><use href="#K" y="256" transform="rotate(-124.31,32,288)"/><use href="#B" y="320"/><use href="#K" y="320" transform="rotate(-121.63,32,352)"/><use href="#B" y="384"/><use href="#K" y="384" transform="rotate(-118.96,32,416)"/><use href="#B" y="448"/><use href="#K" y="448" transform="rotate(-116.29,32,480)"/><use href="#B" y="512"/><use href="#K" y="512" transform="rotate(-113.61,32,544)"/><use href="#B" y="576"/><use href="#K" y="576" transform="rotate(-110.94,32,608)"/><use href="#B" y="640"/><use href="#K" y="640" transform="rotate(-108.27,32,672)"/><use href="#B" y="704"/><use href="#K" y="704" transform="rotate(-105.59,32,736)"/><use href="#B" y="768"/><use href="#K" y="768" transform="rotate(-102.92,32,800)"/><use href="#B" y="832"/><use href="#K" y="832" transform="rotate(-100.25,32,864)"/><use href="#B" y="896"/><use href="#K" y="896" transform="rotate(-97.57,32,928)"/><use href="#B" y="960"/><use href="#K" y="960" transform="rotate(-94.90,32,992)"/><use href="#B" y="1024"/><use href="#K" y="1024" transform="rotate(-92.23,32,1056)"/><use href="#B" y="1088"/><use href="#K" y="1088" transform="rotate(-89.55,32,1120)"/><use href="#B" y="1152"/><use href="#K" y="1152" transform="rotate(-86.88,32,1184)"/><use href="#B" y="1216"/><use href="#K" y="1216" transform="rotate(-84.21,32,1248)"/><use href="#B" y="1280"/><use href="#K" y="1280" transform="rotate(-81.53,32,1312)"/><use href="#B" y="1344"/><use href="#K" y="1344" transform="rotate(-78.86,32,1376)"/><use href="#B" y="1408"/><use href="#K" y="1408" transform="rotate(-76.19,32,1440)"/><use href="#B" y="1472"/><use href="#K" y="1472" transform="rotate(-73.51,32,1504)"/><use href="#B" y="1536"/><use href="#K" y="1536" transform="rotate(-70.84,32,1568)"/><use href="#B" y="1600"/><use href="#K" y="1600" transform="rotate(-68.17,32,1632)"/><use href="#B" y="1664"/><use href="#K" y="1664" transform="rotate(-65.50,32,1696)"/><use href="#B" y="1728"/><use href="#K" y="1728" transform="rotate(-62.82,32,1760)"/><use href="#B" y="1792"/><use href="#K" y="1792" transform="rotate(-60.15,32,1824)"/><use href="#B" y="1856"/><use href="#K" y="1856" transform="rotate(-57.48,32,1888)"/><use href="#B" y="1920"/><use href="#K" y="1920" transform="rotate(-54.80,32,1952)"/><use href="#B" y="1984"/><use href="#K" y="1984" transform="rotate(-52.13,32,2016)"/><use href="#B" y="2048"/><use href="#K" y="2048" transform="rotate(-49.46,32,2080)"/><use href="#B" y="2112"/><use href="#K" y="2112" transform="rotate(-46.78,32,2144)"/><use href="#B" y="2176"/><use href="#K" y="2176" transform="rotate(-44.11,32,2208)"/><use href="#B" y="2240"/><use href="#K" y="2240" transform="rotate(-41.44,32,2272)"/><use href="#B" y="2304"/><use href="#K" y="2304" transform="rotate(-38.76,32,2336)"/><use href="#B" y="2368"/><use href="#K" y="2368" transform="rotate(-36.09,32,2400)"/><use href="#B" y="2432"/><use href="#K" y="2432" transform="rotate(-33.42,32,2464)"/><use href="#B" y="2496"/><use href="#K" y="2496" transform="rotate(-30.74,32,2528)"/><use href="#B" y="2560"/><use href="#K" y="2560" transform="rotate(-28.07,32,2592)"/><use href="#B" y="2624"/><use href="#K" y="2624" transform="rotate(-25.40,32,2656)"/><use href="#B" y="2688"/><use href="#K" y="2688" transform="rotate(-22.72,32,2720)"/><use href="#B" y="2752"/><use href="#K" y="2752" transform="rotate(-20.05,32,2784)"/><use href="#B" y="2816"/><use href="#K" y="2816" transform="rotate(-17.38,32,2848)"/><use href="#B" y="2880"/><use href="#K" y="2880" transform="rotate(-14.70,32,2912)"/><use href="#B" y="2944"/><use href="#K" y="2944" transform="rotate(-12.03,32,2976)"/><use href="#B" y="3008"/><use href="#K" y="3008" transform="rotate(-9.36,32,3040)"/><use href="#B" y="3072"/><use href="#K" y="3072" transform="rotate(-6.68,32,3104)"/><use href="#B" y="3136"/><use href="#K" y="3136" transform="rotate(-4.01,32,3168)"/><use href="#B" y="3200"/><use href="#K" y="3200" transform="rotate(-1.34,32,3232)"/><use href="#B" y="3264"/><use href="#K" y="3264" transform="rotate(1.34,32,3296)"/><use href="#B" y="3328"/><use href="#K" y="3328" transform="rotate(4.01,32,3360)"/><use href="#B" y="3392"/><use href="#K" y="3392" transform="rotate(6.68,32,3424)"/><use href="#B" y="3456"/><use href="#K" y="3456" transform="rotate(9.36,32,3488)"/><use href="#B" y="3520"/><use href="#K" y="3520" transform="rotate(12.03,32,3552)"/><use href="#B" y="3584"/><use href="#K" y="3584" transform="rotate(14.70,32,3616)"/><use href="#B" y="3648"/><use href="#K" y="3648" transform="rotate(17.38,32,3680)"/><use href="#B" y="3712"/><use href="#K" y="3712" transform="rotate(20.05,32,3744)"/><use href="#B" y="3776"/><use href="#K" y="3776" transform="rotate(22.72,32,3808)"/><use href="#B" y="3840"/><use href="#K" y="3840" transform="rotate(25.40,32,3872)"/><use href="#B" y="3904"/><use href="#K" y="3904" transform="rotate(28.07,32,3936)"/><use href="#B" y="3968"/><use href="#K" y="3968" transform="rotate(30.74,32,4000)"/><use href="#B" y="4032"/><use href="#K" y="4032" transform="rotate(33.42,32,4064)"/><use href="#B" y="4096"/><use href="#K" y="4096" transform="rotate(36.09,32,4128)"/><use href="#B" y="4160"/><use href="#K" y="4160" transform="rotate(38.76,32,4192)"/><use href="#B" y="4224"/><use href="#K" y="4224" transform="rotate(41.44,32,4256)"/><use href="#B" y="4288"/><use href="#K" y="4288" transform="rotate(44.11,32,4320)"/><use href="#B" y="4352"/><use href="#K" y="4352" transform="rotate(46.78,32,4384)"/><use href="#B" y="4416"/><use href="#K" y="4416" transform="rotate(49.46,32,4448)"/><use href="#B" y="4480"/><use href="#K" y="4480" transform="rotate(52.13,32,4512)"/><use href="#B" y="4544"/><use href="#K" y="4544" transform="rotate(54.80,32,4576)"/><use href="#B" y="4608"/><use href="#K" y="4608" transform="rotate(57.48,32,4640)"/><use href="#B" y="4672"/><use href="#K" y="4672" transform="rotate(60.15,32,4704)"/><use href="#B" y="4736"/><use href="#K" y="4736" transform="rotate(62.82,32,4768)"/><use href="#B" y="4800"/><use href="#K" y="4800" transform="rotate(65.50,32,4832)"/><use href="#B" y="4864"/><use href="#K" y="4864" transform="rotate(68.17,32,4896)"/><use href="#B" y="4928"/><use href="#K" y="4928" transform="rotate(70.84,32,4960)"/><use href="#B" y="4992"/><use href="#K" y="4992" transform="rotate(73.51,32,5024)"/><use href="#B" y="5056"/><use href="#K" y="5056" transform="rotate(76.19,32,5088)"/><use href="#B" y="5120"/><use href="#K" y="5120" transform="rotate(78.86,32,5152)"/><use href="#B" y="5184"/><use href="#K" y="5184" transform="rotate(81.53,32,5216)"/><use href="#B" y="5248"/><use href="#K" y="5248" transform="rotate(84.21,32,5280)"/><use href="#B" y="5312"/><use href="#K" y="5312" transform="rotate(86.88,32,5344)"/><use href="#B" y="5376"/><use href="#K" y="5376" transform="rotate(89.55,32,5408)"/><use href="#B" y="5440"/><use href="#K" y="5440" transform="rotate(92.23,32,5472)"/><use href="#B" y="5504"/><use href="#K" y="5504" transform="rotate(94.90,32,5536)"/><use href="#B" y="5568"/><use href="#K" y="5568" transform="rotate(97.57,32,5600)"/><use href="#B" y="5632"/><use href="#K" y="5632" transform="rotate(100.25,32,5664)"/><use href="#B" y="5696"/><use href="#K" y="5696" transform="rotate(102.92,32,5728)"/><use href="#B" y="5760"/><use href="#K" y="5760" transform="rotate(105.59,32,5792)"/><use href="#B" y="5824"/><use href="#K" y="5824" transform="rotate(108.27,32,5856)"/><use href="#B" y="5888"/><use href="#K" y="5888" transform="rotate(110.94,32,5920)"/><use href="#B" y="5952"/><use href="#K" y="5952" transform="rotate(113.61,32,5984)"/><use href="#B" y="6016"/><use href="#K" y="6016" transform="rotate(116.29,32,6048)"/><use href="#B" y="6080"/><use href="#K" y="6080" transform="rotate(118.96,32,6112)"/><use href="#B" y="6144"/><use href="#K" y="6144" transform="rotate(121.63,32,6176)"/><use href="#B" y="6208"/><use href="#K" y="6208" transform="rotate(124.31,32,6240)"/><use href="#B" y="6272"/><use href="#K" y="6272" transform="rotate(126.98,32,6304)"/><use href="#B" y="6336"/><use href="#K" y="6336" transform="rotate(129.65,32,6368)"/><use href="#B" y="6400"/><use href="#K" y="6400" transform="rotate(132.33,32,6432)"/></svg>